<svg width="32" height="32" viewBox="0 0 166 166" fill="none" xmlns="http://www.w3.org/2000/svg">
  <rect width="166" height="166" fill="#2e44ed"/>
  <g transform="translate(83, 83) scale(0.7) translate(-83, -83)">
    <path fillRule="evenodd" clipRule="evenodd" d="M141.69 141.69C109.276 174.103 56.7236 174.103 24.3101 141.69C-8.10338 109.276 -8.10338 56.7236 24.3101 24.3101C56.7237 -8.10338 109.276 -8.10338 141.69 24.3101C174.103 56.7237 174.103 109.276 141.69 141.69ZM21.7756 94.2852L30.135 95.5394C31.0332 94.2559 32.0546 93.0337 33.1993 91.8889C34.3441 90.7441 35.5664 89.7227 36.8499 88.8245L35.9861 81.8452C35.9021 81.1667 36.3314 80.5374 36.9952 80.366L51.5172 76.6172C52.181 76.4458 52.879 76.7841 53.1579 77.4124L56.1404 84.1305C59.1555 84.513 62.1296 85.3838 64.9343 86.7416L70.9112 82.3526C71.4618 81.9483 72.2251 82.0064 72.7081 82.4895L83.5159 93.2973C83.999 93.7803 84.0571 94.5436 83.6528 95.0942L78.9381 101.515C80.0119 104.078 80.6937 106.76 80.9824 109.469L88.5926 112.847C89.2208 113.126 89.5591 113.824 89.3877 114.488L85.6389 129.01C85.4675 129.674 84.8382 130.103 84.1597 130.019L75.6638 128.967C74.9073 129.971 74.0722 130.934 73.1585 131.848C72.2449 132.762 71.2819 133.597 70.2778 134.353L71.3776 144.162C90.9208 147.857 111.892 142.142 127.017 127.017C142.142 111.893 147.857 90.921 144.162 71.378L134.353 70.2774C133.596 71.2816 132.761 72.2446 131.848 73.1582C130.934 74.0719 129.971 74.907 128.967 75.6635L130.018 84.1593C130.102 84.8379 129.673 85.4672 129.009 85.6386L114.487 89.3874C113.823 89.5588 113.125 89.2205 112.847 88.5922L109.468 80.9822C106.759 80.6934 104.077 80.0116 101.514 78.9378L95.0936 83.6525C94.5431 84.0568 93.7797 83.9987 93.2967 83.5157L82.4889 72.7079C82.0059 72.2248 81.9478 71.4615 82.3521 70.9109L86.741 64.934C85.3833 62.1293 84.5125 59.1552 84.13 56.14L77.4118 53.1576C76.7836 52.8787 76.4453 52.1806 76.6167 51.5169L80.3655 36.9949C80.5369 36.3311 81.1662 35.9018 81.8447 35.9858L88.824 36.8496C89.7222 35.566 90.7435 34.3438 91.8883 33.199C93.0331 32.0542 94.2554 31.0328 95.5389 30.1347L94.4689 21.8096C74.9695 18.1729 54.068 23.8973 38.9826 38.9826C23.9446 54.0206 18.209 74.8383 21.7756 94.2852Z" fill="white"/>
  </g>
</svg>

